<?xml version="1.0" encoding="UTF-8"?>
<svg xmlns="http://www.w3.org/2000/svg" xmlns:xlink="http://www.w3.org/1999/xlink" width="1500px" height="1500px" viewBox="0 0 59 59" version="1.1">
<defs>
<clipPath id="clip1">
  <path d="M 32 28 L 41.84375 28 L 41.84375 43.40625 L 32 43.40625 Z M 32 28 "/>
</clipPath>
<clipPath id="clip2">
  <path d="M 17.15625 29 L 28 29 L 28 43.40625 L 17.15625 43.40625 Z M 17.15625 29 "/>
</clipPath>
<clipPath id="clip3">
  <path d="M 26 15.59375 L 37 15.59375 L 37 28 L 26 28 Z M 26 15.59375 "/>
</clipPath>
</defs>
<g id="surface1">
<path style=" stroke:none;fill-rule:evenodd;fill:rgb(2.352941%,1.960784%,7.45098%);fill-opacity:1;" d="M 32.117188 24.011719 C 32.117188 24.015625 32.117188 24.023438 32.113281 24.015625 Z M 32.117188 24.011719 "/>
<path style=" stroke:none;fill-rule:evenodd;fill:rgb(2.352941%,1.960784%,7.45098%);fill-opacity:1;" d="M 30.546875 30.28125 L 32.050781 30.28125 L 32.050781 31.410156 L 30.546875 31.410156 L 30.546875 32.917969 L 29.414062 32.917969 L 29.414062 31.410156 L 27.910156 31.410156 L 27.910156 30.28125 L 29.414062 30.28125 L 29.414062 28.773438 L 30.546875 28.773438 Z M 30.546875 30.28125 "/>
<g clip-path="url(#clip1)" clip-rule="nonzero">
<path style=" stroke:none;fill-rule:evenodd;fill:rgb(2.352941%,1.960784%,7.45098%);fill-opacity:1;" d="M 41.566406 39.558594 C 41.214844 39.058594 40.859375 38.550781 40.578125 38.011719 C 40.105469 37.109375 39.527344 36.273438 38.96875 35.421875 C 38.65625 34.949219 38.375 34.464844 38.269531 33.886719 C 38.121094 33.078125 37.820312 32.3125 37.4375 31.578125 C 37.308594 31.332031 37.136719 31.179688 36.863281 31.132812 C 36.738281 31.113281 36.628906 31.058594 36.554688 30.945312 C 36.433594 30.738281 36.242188 30.660156 36.011719 30.683594 C 35.878906 30.699219 35.464844 30.644531 35.390625 30.539062 C 35.316406 30.433594 35.230469 30.332031 35.144531 30.234375 C 34.816406 29.871094 34.484375 29.511719 34.15625 29.152344 C 34.066406 29.050781 33.976562 28.941406 33.828125 29.023438 C 33.683594 29.101562 33.652344 29.246094 33.699219 29.398438 C 33.722656 29.496094 33.773438 29.589844 33.828125 29.679688 C 33.910156 29.804688 33.984375 29.921875 34.0625 30.042969 C 33.9375 29.894531 33.820312 29.738281 33.695312 29.585938 C 33.632812 29.507812 33.566406 29.453125 33.460938 29.488281 C 33.359375 29.515625 33.296875 29.589844 33.269531 29.691406 C 33.230469 29.832031 33.277344 29.960938 33.328125 30.089844 C 33.605469 30.773438 34.089844 31.34375 34.421875 32.003906 C 34.636719 32.429688 34.855469 32.84375 34.980469 33.304688 C 35.0625 33.601562 35.054688 33.84375 34.847656 34.078125 C 34.699219 34.246094 34.464844 34.359375 34.257812 34.289062 C 33.972656 34.199219 33.695312 34.089844 33.421875 33.960938 C 33.132812 33.824219 32.832031 33.8125 32.523438 33.8125 C 32.414062 33.816406 32.3125 33.875 32.222656 33.941406 C 32.113281 34.019531 32.054688 34.152344 32.078125 34.285156 C 32.09375 34.40625 32.214844 34.410156 32.308594 34.4375 C 32.546875 34.496094 32.773438 34.589844 32.988281 34.722656 C 33.464844 35.003906 33.988281 35.199219 34.421875 35.5625 C 34.457031 35.589844 34.511719 35.613281 34.558594 35.625 C 35.195312 35.785156 35.777344 36.097656 36.410156 36.257812 C 36.535156 36.289062 36.648438 36.351562 36.746094 36.441406 C 36.984375 36.648438 37.199219 36.871094 37.359375 37.148438 C 37.535156 37.453125 37.683594 37.773438 37.859375 38.078125 C 38.46875 39.148438 38.90625 40.289062 39.261719 41.464844 C 39.40625 41.941406 39.535156 42.425781 39.675781 42.910156 C 39.71875 43.070312 39.667969 43.285156 39.847656 43.40625 C 40.515625 42.238281 41.175781 41.070312 41.84375 39.902344 C 41.699219 39.832031 41.652344 39.679688 41.566406 39.558594 M 34.597656 30.777344 C 34.550781 30.746094 34.507812 30.707031 34.46875 30.664062 C 34.335938 30.453125 34.199219 30.253906 34.066406 30.046875 C 34.191406 30.207031 34.320312 30.355469 34.445312 30.511719 C 34.523438 30.605469 34.617188 30.6875 34.707031 30.773438 C 34.738281 30.804688 34.65625 30.824219 34.597656 30.777344 "/>
</g>
<g clip-path="url(#clip2)" clip-rule="nonzero">
<path style=" stroke:none;fill-rule:evenodd;fill:rgb(2.352941%,1.960784%,7.45098%);fill-opacity:1;" d="M 26.882812 34.128906 C 26.578125 34.105469 26.277344 34.097656 25.980469 34.214844 C 25.703125 34.324219 25.414062 34.40625 25.121094 34.480469 C 24.910156 34.539062 24.683594 34.410156 24.554688 34.230469 C 24.363281 33.980469 24.367188 33.738281 24.46875 33.449219 C 24.632812 32.996094 24.878906 32.597656 25.121094 32.1875 C 25.5 31.554688 26.023438 31.023438 26.351562 30.355469 C 26.410156 30.234375 26.464844 30.109375 26.4375 29.964844 C 26.414062 29.859375 26.359375 29.785156 26.257812 29.746094 C 26.15625 29.707031 26.085938 29.757812 26.019531 29.832031 C 25.882812 29.972656 25.75 30.121094 25.617188 30.265625 C 25.703125 30.148438 25.789062 30.035156 25.878906 29.914062 C 25.9375 29.832031 25.996094 29.734375 26.03125 29.640625 C 26.085938 29.496094 26.0625 29.347656 25.925781 29.257812 C 25.785156 29.167969 25.6875 29.269531 25.589844 29.363281 C 25.234375 29.703125 24.882812 30.035156 24.527344 30.375 C 24.433594 30.460938 24.34375 30.554688 24.257812 30.660156 C 24.175781 30.761719 23.761719 30.78125 23.628906 30.761719 C 23.402344 30.71875 23.207031 30.78125 23.066406 30.984375 C 22.992188 31.089844 22.875 31.136719 22.75 31.148438 C 22.472656 31.175781 22.289062 31.3125 22.144531 31.550781 C 21.710938 32.253906 21.355469 32.996094 21.148438 33.796875 C 21.003906 34.363281 20.6875 34.824219 20.34375 35.277344 C 19.726562 36.085938 19.09375 36.875 18.554688 37.742188 C 18.230469 38.265625 17.847656 38.746094 17.457031 39.21875 C 17.363281 39.332031 17.308594 39.484375 17.15625 39.542969 C 17.738281 40.753906 18.316406 41.96875 18.902344 43.175781 C 19.085938 43.066406 19.046875 42.851562 19.109375 42.691406 C 19.28125 42.222656 19.4375 41.75 19.621094 41.28125 C 20.058594 40.132812 20.578125 39.027344 21.261719 38.003906 C 21.457031 37.710938 21.628906 37.402344 21.828125 37.113281 C 22.003906 36.847656 22.238281 36.644531 22.484375 36.449219 C 22.585938 36.371094 22.707031 36.316406 22.835938 36.292969 C 23.480469 36.175781 24.082031 35.90625 24.726562 35.792969 C 24.777344 35.785156 24.832031 35.769531 24.871094 35.738281 C 25.324219 35.410156 25.863281 35.253906 26.359375 35 C 26.578125 34.886719 26.8125 34.808594 27.058594 34.761719 C 27.152344 34.75 27.273438 34.753906 27.300781 34.632812 C 27.328125 34.5 27.28125 34.367188 27.179688 34.28125 C 27.09375 34.207031 26.996094 34.140625 26.882812 34.128906 M 24.925781 30.945312 C 25.023438 30.867188 25.121094 30.789062 25.203125 30.699219 C 25.335938 30.5625 25.46875 30.421875 25.605469 30.28125 C 25.457031 30.46875 25.3125 30.660156 25.171875 30.851562 C 25.136719 30.882812 25.085938 30.921875 25.03125 30.957031 C 24.972656 30.996094 24.890625 30.972656 24.925781 30.945312 "/>
</g>
<g clip-path="url(#clip3)" clip-rule="nonzero">
<path style=" stroke:none;fill-rule:evenodd;fill:rgb(2.352941%,1.960784%,7.45098%);fill-opacity:1;" d="M 32.945312 15.59375 C 32.9375 15.753906 32.816406 15.863281 32.746094 15.988281 C 32.4375 16.519531 32.128906 17.050781 31.753906 17.535156 C 31.132812 18.347656 30.617188 19.21875 30.078125 20.082031 C 29.777344 20.566406 29.457031 21.023438 28.980469 21.363281 C 28.300781 21.839844 27.730469 22.429688 27.226562 23.085938 C 27.058594 23.304688 26.992188 23.523438 27.066406 23.792969 C 27.097656 23.917969 27.09375 24.039062 27.019531 24.148438 C 26.882812 24.351562 26.894531 24.554688 27.015625 24.757812 C 27.085938 24.871094 27.207031 25.265625 27.140625 25.378906 C 27.078125 25.492188 27.019531 25.613281 26.972656 25.726562 C 26.78125 26.179688 26.589844 26.632812 26.398438 27.082031 C 26.347656 27.203125 26.28125 27.332031 26.421875 27.429688 C 26.554688 27.527344 26.695312 27.503906 26.816406 27.398438 C 26.890625 27.328125 26.960938 27.246094 27.015625 27.160156 L 27.253906 26.785156 C 27.167969 26.964844 27.082031 27.140625 26.988281 27.316406 C 26.945312 27.40625 26.921875 27.492188 26.992188 27.574219 C 27.066406 27.648438 27.15625 27.679688 27.261719 27.660156 C 27.40625 27.632812 27.503906 27.542969 27.601562 27.441406 C 28.105469 26.898438 28.417969 26.222656 28.878906 25.644531 C 29.175781 25.273438 29.460938 24.898438 29.828125 24.589844 C 30.0625 24.390625 30.285156 24.300781 30.585938 24.390625 C 30.796875 24.453125 31.152344 24.636719 31.210938 24.847656 C 31.300781 25.132812 31.378906 25.425781 31.425781 25.722656 C 31.484375 26.035156 31.644531 26.289062 31.832031 26.535156 C 31.898438 26.628906 32 26.675781 32.109375 26.710938 C 32.242188 26.753906 32.371094 26.71875 32.46875 26.628906 C 32.558594 26.546875 32.492188 26.445312 32.460938 26.355469 C 32.367188 26.121094 32.285156 25.882812 32.265625 25.628906 C 32.226562 25.082031 32.050781 24.578125 32.050781 24.023438 L 32.050781 24.015625 C 32.050781 24.011719 32.078125 24.007812 32.078125 24 C 31.957031 23.359375 32.015625 22.699219 31.894531 22.054688 C 31.867188 21.929688 31.886719 21.796875 31.925781 21.671875 C 32.019531 21.371094 32.132812 21.085938 32.316406 20.820312 C 32.515625 20.53125 32.746094 20.261719 32.949219 19.976562 C 33.667969 18.976562 34.523438 18.101562 35.4375 17.285156 C 35.8125 16.953125 36.199219 16.632812 36.578125 16.304688 C 36.710938 16.191406 36.921875 16.152344 36.960938 15.941406 C 35.617188 15.824219 34.28125 15.710938 32.945312 15.59375 M 27.695312 25.996094 C 27.679688 26.054688 27.660156 26.121094 27.644531 26.160156 C 27.515625 26.367188 27.390625 26.566406 27.261719 26.769531 C 27.347656 26.59375 27.429688 26.421875 27.515625 26.25 C 27.570312 26.140625 27.605469 26.019531 27.644531 25.902344 C 27.65625 25.859375 27.710938 25.929688 27.695312 25.996094 "/>
</g>
<path style=" stroke:none;fill-rule:nonzero;fill:rgb(100%,100%,100%);fill-opacity:1;" d="M 6.425781 20.386719 C 6.175781 21.097656 5.738281 21.558594 5.113281 21.769531 C 4.488281 21.976562 3.710938 21.917969 2.785156 21.59375 C 1.859375 21.269531 1.214844 20.828125 0.859375 20.265625 C 0.5 19.699219 0.441406 19.066406 0.6875 18.363281 C 0.757812 18.160156 0.847656 17.972656 0.957031 17.800781 C 1.0625 17.632812 1.179688 17.484375 1.300781 17.363281 C 1.425781 17.242188 1.550781 17.15625 1.675781 17.105469 C 1.800781 17.050781 1.917969 17.042969 2.023438 17.082031 C 2.128906 17.121094 2.207031 17.195312 2.25 17.316406 C 2.296875 17.429688 2.285156 17.570312 2.210938 17.730469 C 1.914062 17.675781 1.660156 17.710938 1.449219 17.84375 C 1.238281 17.976562 1.085938 18.179688 0.988281 18.449219 C 0.8125 18.960938 0.894531 19.421875 1.238281 19.828125 C 1.582031 20.234375 2.179688 20.585938 3.03125 20.886719 C 3.886719 21.183594 4.570312 21.28125 5.089844 21.179688 C 5.609375 21.078125 5.960938 20.769531 6.136719 20.257812 C 6.226562 20.003906 6.246094 19.777344 6.199219 19.585938 C 6.148438 19.390625 6.058594 19.226562 5.921875 19.085938 C 5.785156 18.945312 5.632812 18.828125 5.464844 18.742188 C 5.292969 18.652344 5.132812 18.582031 4.976562 18.527344 C 4.769531 18.453125 4.582031 18.414062 4.417969 18.402344 C 4.25 18.390625 4.101562 18.410156 3.976562 18.464844 C 3.851562 18.515625 3.753906 18.605469 3.675781 18.734375 C 3.597656 18.683594 3.554688 18.613281 3.546875 18.519531 C 3.535156 18.425781 3.550781 18.328125 3.585938 18.226562 C 3.636719 18.085938 3.71875 17.964844 3.839844 17.867188 C 3.960938 17.765625 4.125 17.710938 4.328125 17.695312 C 4.53125 17.675781 4.78125 17.722656 5.085938 17.828125 C 5.289062 17.898438 5.480469 17.992188 5.65625 18.105469 C 5.835938 18.21875 5.992188 18.351562 6.128906 18.503906 C 6.265625 18.65625 6.367188 18.828125 6.441406 19.015625 C 6.515625 19.207031 6.554688 19.417969 6.558594 19.648438 C 6.558594 19.878906 6.515625 20.125 6.425781 20.386719 Z M 6.425781 20.386719 "/>
<path style=" stroke:none;fill-rule:nonzero;fill:rgb(100%,100%,100%);fill-opacity:1;" d="M 9.484375 14.601562 C 9.421875 14.683594 9.339844 14.734375 9.238281 14.753906 C 9.132812 14.773438 9.03125 14.75 8.933594 14.671875 L 6.453125 12.796875 C 6.320312 12.695312 6.21875 12.640625 6.144531 12.632812 C 6.070312 12.621094 6.007812 12.652344 5.957031 12.71875 C 5.941406 12.738281 5.925781 12.773438 5.910156 12.820312 C 5.898438 12.867188 5.902344 12.917969 5.933594 12.976562 C 5.824219 12.976562 5.730469 12.949219 5.65625 12.894531 C 5.566406 12.824219 5.519531 12.734375 5.515625 12.617188 C 5.511719 12.5 5.554688 12.378906 5.652344 12.253906 C 5.78125 12.082031 5.941406 12 6.128906 12 C 6.320312 12.003906 6.535156 12.097656 6.78125 12.289062 L 7.222656 12.628906 L 7.164062 12.707031 C 6.804688 12.367188 6.59375 12.035156 6.519531 11.714844 C 6.449219 11.390625 6.515625 11.097656 6.714844 10.832031 C 6.890625 10.601562 7.09375 10.460938 7.320312 10.410156 C 7.550781 10.359375 7.78125 10.417969 8.003906 10.585938 C 8.152344 10.699219 8.242188 10.832031 8.277344 10.984375 C 8.308594 11.136719 8.289062 11.265625 8.214844 11.375 C 8.140625 11.484375 8.058594 11.546875 7.972656 11.558594 C 7.925781 11.4375 7.875 11.347656 7.824219 11.28125 C 7.769531 11.21875 7.707031 11.15625 7.632812 11.101562 C 7.492188 10.996094 7.359375 10.949219 7.242188 10.964844 C 7.125 10.980469 7.015625 11.050781 6.921875 11.175781 C 6.832031 11.296875 6.792969 11.453125 6.8125 11.644531 C 6.832031 11.832031 6.933594 12.046875 7.113281 12.289062 C 7.292969 12.53125 7.582031 12.800781 7.972656 13.097656 C 8.238281 13.296875 8.457031 13.464844 8.632812 13.597656 C 8.808594 13.730469 8.953125 13.835938 9.070312 13.914062 C 9.183594 13.988281 9.28125 14.046875 9.363281 14.089844 C 9.445312 14.132812 9.523438 14.167969 9.605469 14.191406 C 9.609375 14.242188 9.605469 14.300781 9.597656 14.371094 C 9.582031 14.445312 9.546875 14.519531 9.484375 14.601562 Z M 9.484375 14.601562 "/>
<path style=" stroke:none;fill-rule:nonzero;fill:rgb(100%,100%,100%);fill-opacity:1;" d="M 16.304688 8.195312 C 16.109375 8.339844 15.914062 8.378906 15.714844 8.320312 C 15.515625 8.261719 15.308594 8.085938 15.089844 7.789062 L 14.640625 7.183594 L 14.816406 7.148438 C 14.941406 7.480469 15.003906 7.808594 15 8.132812 C 15.003906 8.460938 14.941406 8.757812 14.820312 9.03125 C 14.699219 9.304688 14.515625 9.527344 14.273438 9.710938 C 14.003906 9.910156 13.742188 9.992188 13.484375 9.960938 C 13.230469 9.929688 13.015625 9.792969 12.839844 9.550781 C 12.699219 9.367188 12.625 9.164062 12.617188 8.949219 C 12.605469 8.730469 12.648438 8.507812 12.746094 8.28125 C 12.84375 8.058594 12.976562 7.835938 13.152344 7.613281 C 13.304688 7.421875 13.476562 7.246094 13.664062 7.078125 C 13.851562 6.910156 14.03125 6.769531 14.207031 6.65625 L 14.078125 6.476562 C 13.785156 6.082031 13.5 5.835938 13.21875 5.734375 C 12.941406 5.628906 12.644531 5.695312 12.332031 5.925781 C 12.222656 6.007812 12.125 6.105469 12.039062 6.222656 C 11.953125 6.335938 11.90625 6.460938 11.890625 6.589844 C 11.878906 6.71875 11.925781 6.855469 12.03125 7 C 12.097656 7.089844 12.191406 7.167969 12.308594 7.230469 C 12.425781 7.296875 12.550781 7.308594 12.683594 7.265625 C 12.679688 7.347656 12.65625 7.417969 12.613281 7.480469 C 12.566406 7.546875 12.515625 7.601562 12.457031 7.644531 C 12.296875 7.761719 12.128906 7.792969 11.949219 7.738281 C 11.765625 7.683594 11.617188 7.578125 11.503906 7.421875 C 11.304688 7.15625 11.273438 6.867188 11.40625 6.554688 C 11.539062 6.242188 11.804688 5.9375 12.199219 5.648438 C 12.671875 5.296875 13.105469 5.160156 13.503906 5.238281 C 13.898438 5.316406 14.28125 5.605469 14.652344 6.101562 L 15.660156 7.464844 C 15.835938 7.703125 16.007812 7.761719 16.171875 7.640625 C 16.207031 7.617188 16.238281 7.574219 16.269531 7.515625 C 16.296875 7.460938 16.304688 7.398438 16.289062 7.332031 C 16.34375 7.347656 16.390625 7.371094 16.429688 7.402344 C 16.472656 7.433594 16.5 7.460938 16.519531 7.488281 C 16.59375 7.585938 16.609375 7.703125 16.570312 7.839844 C 16.53125 7.976562 16.441406 8.09375 16.304688 8.195312 Z M 14.234375 9.148438 C 14.367188 9.050781 14.472656 8.914062 14.550781 8.730469 C 14.628906 8.550781 14.679688 8.347656 14.703125 8.128906 C 14.722656 7.910156 14.707031 7.691406 14.65625 7.46875 C 14.605469 7.246094 14.515625 7.042969 14.382812 6.859375 C 14.269531 6.929688 14.15625 7.015625 14.03125 7.121094 C 13.910156 7.222656 13.796875 7.332031 13.691406 7.449219 C 13.585938 7.5625 13.496094 7.671875 13.429688 7.777344 C 13.285156 7.996094 13.199219 8.210938 13.179688 8.421875 C 13.15625 8.628906 13.210938 8.820312 13.34375 9 C 13.445312 9.136719 13.574219 9.230469 13.734375 9.285156 C 13.894531 9.335938 14.058594 9.292969 14.234375 9.148438 Z M 14.234375 9.148438 "/>
<path style=" stroke:none;fill-rule:nonzero;fill:rgb(100%,100%,100%);fill-opacity:1;" d="M 25.101562 1.992188 L 25.574219 3.605469 C 25.613281 3.746094 25.664062 3.894531 25.726562 4.050781 C 25.789062 4.207031 25.855469 4.335938 25.933594 4.445312 C 25.902344 4.492188 25.859375 4.542969 25.808594 4.589844 C 25.757812 4.636719 25.6875 4.671875 25.601562 4.699219 C 25.496094 4.730469 25.398438 4.722656 25.308594 4.679688 C 25.21875 4.636719 25.15625 4.558594 25.125 4.449219 L 24.484375 2.257812 C 24.398438 1.972656 24.304688 1.730469 24.199219 1.53125 C 24.09375 1.335938 23.96875 1.191406 23.824219 1.109375 C 23.679688 1.023438 23.503906 1.011719 23.296875 1.074219 C 23.179688 1.109375 23.066406 1.179688 22.960938 1.28125 C 22.859375 1.386719 22.773438 1.523438 22.707031 1.695312 C 22.644531 1.867188 22.613281 2.078125 22.609375 2.332031 C 22.605469 2.585938 22.648438 2.875 22.738281 3.203125 L 23.082031 4.335938 C 23.121094 4.476562 23.171875 4.625 23.234375 4.78125 C 23.292969 4.9375 23.363281 5.066406 23.433594 5.175781 C 23.40625 5.226562 23.367188 5.273438 23.316406 5.320312 C 23.265625 5.367188 23.199219 5.402344 23.113281 5.429688 C 23.007812 5.457031 22.914062 5.453125 22.828125 5.40625 C 22.742188 5.363281 22.679688 5.285156 22.648438 5.175781 L 22 2.988281 C 21.863281 2.527344 21.707031 2.191406 21.527344 1.984375 C 21.34375 1.777344 21.097656 1.71875 20.789062 1.808594 C 20.664062 1.84375 20.550781 1.917969 20.449219 2.023438 C 20.34375 2.128906 20.265625 2.277344 20.210938 2.457031 C 20.15625 2.640625 20.132812 2.867188 20.140625 3.136719 C 20.148438 3.402344 20.203125 3.71875 20.3125 4.082031 C 20.402344 4.394531 20.480469 4.65625 20.539062 4.863281 C 20.601562 5.074219 20.65625 5.238281 20.699219 5.367188 C 20.746094 5.488281 20.789062 5.59375 20.824219 5.675781 C 20.863281 5.757812 20.910156 5.835938 20.96875 5.898438 C 20.941406 5.9375 20.90625 5.980469 20.855469 6.035156 C 20.808594 6.085938 20.734375 6.125 20.636719 6.15625 C 20.527344 6.1875 20.429688 6.175781 20.335938 6.128906 C 20.246094 6.078125 20.183594 5.992188 20.148438 5.875 L 19.265625 2.890625 C 19.222656 2.75 19.167969 2.648438 19.097656 2.589844 C 19.027344 2.53125 18.945312 2.515625 18.855469 2.542969 C 18.804688 2.554688 18.761719 2.585938 18.726562 2.628906 C 18.6875 2.671875 18.664062 2.726562 18.652344 2.789062 C 18.570312 2.730469 18.515625 2.652344 18.488281 2.5625 C 18.453125 2.433594 18.46875 2.316406 18.546875 2.210938 C 18.621094 2.105469 18.726562 2.035156 18.871094 1.992188 C 19.085938 1.929688 19.277344 1.953125 19.445312 2.066406 C 19.613281 2.179688 19.742188 2.386719 19.832031 2.6875 L 19.988281 3.234375 L 19.882812 3.132812 C 19.839844 2.703125 19.902344 2.335938 20.078125 2.023438 C 20.25 1.710938 20.515625 1.5 20.871094 1.394531 C 21.261719 1.28125 21.585938 1.3125 21.851562 1.484375 C 22.113281 1.65625 22.324219 1.957031 22.484375 2.386719 L 22.378906 2.382812 C 22.34375 2.105469 22.359375 1.847656 22.429688 1.613281 C 22.5 1.378906 22.613281 1.179688 22.773438 1.015625 C 22.933594 0.851562 23.132812 0.734375 23.371094 0.664062 C 23.800781 0.539062 24.152344 0.589844 24.4375 0.820312 C 24.71875 1.046875 24.9375 1.4375 25.101562 1.992188 Z M 25.101562 1.992188 "/>
<path style=" stroke:none;fill-rule:nonzero;fill:rgb(100%,100%,100%);fill-opacity:1;" d="M 33.34375 4.691406 C 33.101562 4.671875 32.925781 4.574219 32.816406 4.398438 C 32.703125 4.222656 32.664062 3.953125 32.695312 3.585938 L 32.753906 2.835938 L 32.90625 2.925781 C 32.785156 3.253906 32.617188 3.542969 32.402344 3.785156 C 32.1875 4.035156 31.945312 4.21875 31.671875 4.34375 C 31.402344 4.46875 31.117188 4.519531 30.8125 4.496094 C 30.480469 4.46875 30.230469 4.359375 30.058594 4.167969 C 29.886719 3.976562 29.8125 3.734375 29.839844 3.4375 C 29.855469 3.207031 29.933594 3.003906 30.066406 2.832031 C 30.203125 2.664062 30.382812 2.523438 30.601562 2.417969 C 30.820312 2.3125 31.070312 2.234375 31.347656 2.179688 C 31.589844 2.136719 31.832031 2.113281 32.085938 2.113281 C 32.335938 2.109375 32.566406 2.121094 32.773438 2.152344 L 32.789062 1.929688 C 32.828125 1.441406 32.777344 1.066406 32.632812 0.804688 C 32.492188 0.546875 32.226562 0.398438 31.839844 0.371094 C 31.703125 0.359375 31.566406 0.367188 31.421875 0.402344 C 31.28125 0.429688 31.164062 0.492188 31.070312 0.582031 C 30.976562 0.667969 30.921875 0.804688 30.90625 0.980469 C 30.898438 1.09375 30.917969 1.214844 30.960938 1.339844 C 31.011719 1.464844 31.097656 1.554688 31.222656 1.609375 C 31.167969 1.667969 31.101562 1.707031 31.027344 1.726562 C 30.953125 1.746094 30.878906 1.753906 30.804688 1.746094 C 30.605469 1.730469 30.457031 1.644531 30.359375 1.484375 C 30.257812 1.320312 30.214844 1.144531 30.230469 0.953125 C 30.257812 0.625 30.421875 0.382812 30.726562 0.234375 C 31.035156 0.0859375 31.429688 0.03125 31.921875 0.0703125 C 32.507812 0.117188 32.921875 0.300781 33.171875 0.621094 C 33.417969 0.941406 33.519531 1.410156 33.46875 2.027344 L 33.335938 3.714844 C 33.3125 4.011719 33.402344 4.167969 33.605469 4.183594 C 33.648438 4.1875 33.703125 4.179688 33.761719 4.15625 C 33.820312 4.132812 33.863281 4.089844 33.894531 4.027344 C 33.925781 4.078125 33.949219 4.125 33.957031 4.175781 C 33.96875 4.222656 33.972656 4.265625 33.96875 4.296875 C 33.960938 4.421875 33.894531 4.519531 33.777344 4.597656 C 33.65625 4.671875 33.511719 4.703125 33.34375 4.691406 Z M 31.15625 4.046875 C 31.316406 4.0625 31.488281 4.027344 31.667969 3.941406 C 31.847656 3.855469 32.015625 3.738281 32.175781 3.585938 C 32.335938 3.4375 32.46875 3.261719 32.578125 3.058594 C 32.6875 2.859375 32.75 2.644531 32.769531 2.421875 C 32.640625 2.398438 32.496094 2.386719 32.335938 2.386719 C 32.175781 2.382812 32.015625 2.390625 31.863281 2.410156 C 31.707031 2.425781 31.570312 2.449219 31.449219 2.484375 C 31.195312 2.554688 30.992188 2.664062 30.839844 2.808594 C 30.683594 2.949219 30.597656 3.132812 30.582031 3.351562 C 30.566406 3.519531 30.605469 3.675781 30.6875 3.820312 C 30.773438 3.964844 30.929688 4.042969 31.15625 4.046875 Z M 31.15625 4.046875 "/>
<path style=" stroke:none;fill-rule:nonzero;fill:rgb(100%,100%,100%);fill-opacity:1;" d="M 40.402344 0.796875 L 38.546875 5.613281 C 38.785156 5.707031 39.027344 5.789062 39.277344 5.859375 C 39.527344 5.933594 39.773438 5.996094 40.015625 6.058594 C 40.261719 6.113281 40.484375 6.160156 40.6875 6.195312 C 40.722656 6.234375 40.734375 6.289062 40.730469 6.363281 C 40.726562 6.4375 40.710938 6.511719 40.683594 6.582031 C 40.65625 6.652344 40.621094 6.707031 40.578125 6.75 C 40.535156 6.789062 40.484375 6.800781 40.425781 6.777344 L 38.132812 5.886719 C 38.027344 5.847656 37.953125 5.78125 37.910156 5.691406 C 37.863281 5.601562 37.863281 5.503906 37.90625 5.390625 L 39.523438 1.191406 C 39.585938 1.035156 39.636719 0.882812 39.679688 0.730469 C 39.722656 0.582031 39.746094 0.441406 39.75 0.308594 C 39.792969 0.289062 39.851562 0.277344 39.929688 0.269531 C 40.003906 0.261719 40.085938 0.277344 40.175781 0.3125 C 40.28125 0.351562 40.355469 0.414062 40.398438 0.5 C 40.445312 0.589844 40.445312 0.6875 40.402344 0.796875 Z M 40.402344 0.796875 "/>
<path style=" stroke:none;fill-rule:nonzero;fill:rgb(100%,100%,100%);fill-opacity:1;" d="M 47.316406 5.0625 C 47.214844 4.992188 47.15625 4.894531 47.132812 4.765625 C 47.113281 4.640625 47.136719 4.527344 47.210938 4.425781 C 47.285156 4.320312 47.382812 4.257812 47.507812 4.238281 C 47.632812 4.21875 47.742188 4.246094 47.847656 4.316406 C 47.953125 4.394531 48.015625 4.492188 48.035156 4.613281 C 48.054688 4.734375 48.027344 4.847656 47.953125 4.953125 C 47.882812 5.054688 47.785156 5.117188 47.660156 5.140625 C 47.539062 5.164062 47.421875 5.136719 47.316406 5.0625 Z M 47 6.144531 L 45.230469 8.652344 C 45.136719 8.789062 45.050781 8.921875 44.96875 9.058594 C 44.890625 9.195312 44.832031 9.328125 44.796875 9.457031 C 44.753906 9.460938 44.695312 9.457031 44.621094 9.449219 C 44.546875 9.441406 44.472656 9.410156 44.394531 9.355469 C 44.304688 9.292969 44.25 9.214844 44.230469 9.117188 C 44.207031 9.019531 44.230469 8.921875 44.296875 8.832031 L 46.0625 6.320312 C 46.15625 6.1875 46.246094 6.050781 46.324219 5.914062 C 46.40625 5.777344 46.460938 5.648438 46.496094 5.519531 C 46.542969 5.515625 46.601562 5.519531 46.675781 5.527344 C 46.75 5.53125 46.824219 5.5625 46.902344 5.621094 C 46.996094 5.683594 47.050781 5.765625 47.070312 5.859375 C 47.09375 5.953125 47.066406 6.046875 47 6.144531 Z M 47 6.144531 "/>
<path style=" stroke:none;fill-rule:nonzero;fill:rgb(100%,100%,100%);fill-opacity:1;" d="M 48.203125 13.007812 C 48.128906 12.914062 48.097656 12.816406 48.109375 12.710938 C 48.117188 12.609375 48.171875 12.519531 48.269531 12.441406 L 50.699219 10.484375 C 50.824219 10.378906 50.902344 10.292969 50.929688 10.226562 C 50.960938 10.15625 50.949219 10.089844 50.894531 10.023438 C 50.878906 10.003906 50.847656 9.980469 50.808594 9.953125 C 50.765625 9.929688 50.714844 9.925781 50.652344 9.9375 C 50.675781 9.832031 50.726562 9.75 50.800781 9.691406 C 50.886719 9.617188 50.988281 9.59375 51.101562 9.621094 C 51.214844 9.644531 51.324219 9.71875 51.421875 9.839844 C 51.554688 10.007812 51.601562 10.179688 51.558594 10.359375 C 51.519531 10.535156 51.386719 10.71875 51.15625 10.902344 L 50.695312 11.273438 L 50.496094 11.269531 C 50.78125 11.082031 51.0625 10.96875 51.335938 10.925781 C 51.613281 10.878906 51.871094 10.90625 52.117188 11 C 52.359375 11.097656 52.574219 11.257812 52.753906 11.484375 C 53.046875 11.847656 53.144531 12.210938 53.050781 12.570312 C 52.957031 12.925781 52.683594 13.285156 52.238281 13.648438 L 50.925781 14.703125 C 50.816406 14.800781 50.699219 14.902344 50.578125 15.019531 C 50.457031 15.132812 50.359375 15.246094 50.289062 15.355469 C 50.230469 15.34375 50.167969 15.324219 50.105469 15.296875 C 50.042969 15.269531 49.984375 15.21875 49.925781 15.148438 C 49.855469 15.058594 49.824219 14.964844 49.828125 14.863281 C 49.832031 14.761719 49.878906 14.675781 49.96875 14.605469 L 51.746094 13.171875 C 52.113281 12.871094 52.351562 12.59375 52.460938 12.339844 C 52.574219 12.089844 52.527344 11.835938 52.320312 11.582031 C 52.234375 11.472656 52.117188 11.382812 51.980469 11.320312 C 51.839844 11.253906 51.671875 11.222656 51.476562 11.226562 C 51.285156 11.234375 51.066406 11.289062 50.820312 11.390625 C 50.578125 11.492188 50.316406 11.65625 50.035156 11.882812 C 49.769531 12.09375 49.554688 12.269531 49.382812 12.40625 C 49.214844 12.546875 49.074219 12.664062 48.96875 12.757812 C 48.863281 12.851562 48.78125 12.933594 48.71875 13.003906 C 48.660156 13.074219 48.609375 13.144531 48.566406 13.214844 C 48.523438 13.207031 48.464844 13.1875 48.394531 13.160156 C 48.328125 13.132812 48.261719 13.082031 48.203125 13.007812 Z M 48.203125 13.007812 "/>
<path style=" stroke:none;fill-rule:nonzero;fill:rgb(100%,100%,100%);fill-opacity:1;" d="M 52.285156 19.554688 C 52.234375 19.417969 52.234375 19.308594 52.285156 19.234375 C 52.339844 19.160156 52.417969 19.101562 52.53125 19.058594 L 57.648438 17.074219 C 57.757812 17.03125 57.855469 17.03125 57.945312 17.074219 C 58.03125 17.121094 58.09375 17.195312 58.136719 17.300781 C 58.171875 17.394531 58.183594 17.480469 58.175781 17.554688 C 58.164062 17.628906 58.148438 17.683594 58.132812 17.71875 C 58.007812 17.738281 57.890625 17.761719 57.785156 17.792969 C 57.679688 17.820312 57.578125 17.847656 57.480469 17.882812 C 57.382812 17.914062 57.285156 17.945312 57.183594 17.980469 C 57.082031 18.015625 56.972656 18.054688 56.855469 18.09375 L 55.179688 18.734375 L 55.222656 18.664062 C 55.519531 18.632812 55.796875 18.652344 56.054688 18.722656 C 56.3125 18.792969 56.539062 18.914062 56.734375 19.085938 C 56.929688 19.257812 57.082031 19.480469 57.1875 19.753906 C 57.3125 20.074219 57.324219 20.347656 57.21875 20.578125 C 57.121094 20.808594 56.933594 20.976562 56.664062 21.078125 C 56.449219 21.164062 56.238281 21.183594 56.023438 21.144531 C 55.8125 21.105469 55.613281 21.027344 55.421875 20.910156 C 55.234375 20.792969 55.054688 20.65625 54.894531 20.503906 C 54.890625 20.570312 54.871094 20.636719 54.835938 20.703125 C 54.800781 20.769531 54.753906 20.839844 54.699219 20.914062 L 54.039062 21.703125 C 53.976562 21.796875 53.925781 21.871094 53.898438 21.929688 C 53.867188 21.984375 53.867188 22.046875 53.894531 22.121094 C 53.90625 22.148438 53.925781 22.179688 53.957031 22.21875 C 53.984375 22.253906 54.027344 22.285156 54.082031 22.304688 C 54.058594 22.351562 54.03125 22.386719 54 22.414062 C 53.964844 22.441406 53.929688 22.460938 53.886719 22.480469 C 53.765625 22.523438 53.648438 22.507812 53.53125 22.433594 C 53.410156 22.351562 53.328125 22.246094 53.273438 22.109375 C 53.222656 21.976562 53.214844 21.84375 53.253906 21.703125 C 53.289062 21.566406 53.371094 21.4375 53.492188 21.316406 L 54.570312 20.121094 C 54.441406 19.96875 54.316406 19.816406 54.203125 19.664062 C 54.082031 19.511719 53.980469 19.367188 53.886719 19.242188 C 53.65625 19.332031 53.464844 19.40625 53.316406 19.464844 C 53.167969 19.527344 53.050781 19.578125 52.964844 19.621094 C 52.878906 19.664062 52.808594 19.703125 52.75 19.742188 C 52.691406 19.777344 52.632812 19.824219 52.574219 19.875 C 52.527344 19.851562 52.476562 19.816406 52.425781 19.773438 C 52.371094 19.726562 52.324219 19.652344 52.285156 19.554688 Z M 54.171875 19.132812 C 54.328125 19.335938 54.496094 19.535156 54.667969 19.722656 C 54.84375 19.914062 55.023438 20.078125 55.210938 20.214844 C 55.402344 20.355469 55.59375 20.449219 55.789062 20.496094 C 55.980469 20.546875 56.179688 20.535156 56.378906 20.457031 C 56.585938 20.375 56.710938 20.269531 56.757812 20.132812 C 56.804688 19.996094 56.796875 19.847656 56.734375 19.683594 C 56.628906 19.417969 56.453125 19.214844 56.199219 19.082031 C 55.945312 18.953125 55.640625 18.890625 55.292969 18.894531 C 54.941406 18.898438 54.566406 18.980469 54.171875 19.132812 Z M 54.171875 19.132812 "/>
<path style=" stroke:none;fill-rule:nonzero;fill:rgb(100%,100%,100%);fill-opacity:1;" d="M 1.921875 39.953125 C 1.664062 39.222656 1.71875 38.574219 2.085938 38.007812 C 2.453125 37.441406 3.109375 36.988281 4.058594 36.65625 C 5.003906 36.324219 5.804688 36.269531 6.449219 36.492188 C 7.097656 36.710938 7.546875 37.183594 7.800781 37.902344 C 7.875 38.109375 7.921875 38.316406 7.945312 38.523438 C 7.96875 38.726562 7.96875 38.917969 7.949219 39.09375 C 7.929688 39.269531 7.886719 39.417969 7.816406 39.539062 C 7.75 39.660156 7.660156 39.742188 7.554688 39.777344 C 7.441406 39.816406 7.332031 39.804688 7.222656 39.742188 C 7.109375 39.675781 7.035156 39.554688 6.992188 39.382812 C 7.261719 39.234375 7.441406 39.042969 7.523438 38.800781 C 7.609375 38.5625 7.601562 38.300781 7.503906 38.023438 C 7.320312 37.5 6.960938 37.1875 6.425781 37.082031 C 5.890625 36.976562 5.183594 37.078125 4.3125 37.382812 C 3.441406 37.691406 2.832031 38.050781 2.480469 38.464844 C 2.132812 38.878906 2.046875 39.347656 2.230469 39.871094 C 2.324219 40.128906 2.453125 40.324219 2.613281 40.449219 C 2.777344 40.570312 2.957031 40.644531 3.15625 40.671875 C 3.355469 40.695312 3.550781 40.6875 3.742188 40.652344 C 3.933594 40.613281 4.109375 40.566406 4.265625 40.511719 C 4.476562 40.4375 4.652344 40.351562 4.792969 40.253906 C 4.933594 40.15625 5.039062 40.046875 5.105469 39.925781 C 5.171875 39.800781 5.195312 39.664062 5.175781 39.515625 C 5.269531 39.507812 5.347656 39.535156 5.414062 39.605469 C 5.480469 39.671875 5.535156 39.757812 5.570312 39.863281 C 5.621094 40.007812 5.632812 40.160156 5.597656 40.316406 C 5.5625 40.472656 5.472656 40.621094 5.320312 40.761719 C 5.167969 40.90625 4.933594 41.03125 4.625 41.140625 C 4.417969 41.210938 4.207031 41.261719 3.992188 41.285156 C 3.777344 41.308594 3.566406 41.304688 3.359375 41.265625 C 3.15625 41.234375 2.960938 41.164062 2.78125 41.058594 C 2.601562 40.953125 2.4375 40.808594 2.285156 40.625 C 2.136719 40.441406 2.015625 40.21875 1.921875 39.953125 Z M 1.921875 39.953125 "/>
<path style=" stroke:none;fill-rule:nonzero;fill:rgb(100%,100%,100%);fill-opacity:1;" d="M 5.730469 46.964844 C 5.667969 46.882812 5.640625 46.789062 5.648438 46.679688 C 5.660156 46.570312 5.714844 46.480469 5.816406 46.402344 L 8.355469 44.472656 C 8.488281 44.375 8.570312 44.289062 8.597656 44.21875 C 8.628906 44.148438 8.617188 44.078125 8.566406 44.007812 C 8.550781 43.984375 8.519531 43.960938 8.476562 43.933594 C 8.4375 43.910156 8.382812 43.902344 8.320312 43.914062 C 8.347656 43.804688 8.398438 43.722656 8.476562 43.664062 C 8.570312 43.59375 8.671875 43.574219 8.789062 43.601562 C 8.90625 43.628906 9.011719 43.707031 9.109375 43.835938 C 9.242188 44.011719 9.28125 44.191406 9.226562 44.378906 C 9.171875 44.5625 9.015625 44.75 8.761719 44.9375 L 8.304688 45.285156 L 8.242188 45.199219 C 8.675781 44.941406 9.0625 44.824219 9.398438 44.84375 C 9.738281 44.863281 10.007812 45.007812 10.214844 45.277344 C 10.394531 45.511719 10.476562 45.753906 10.464844 45.996094 C 10.453125 46.234375 10.332031 46.445312 10.101562 46.617188 C 9.949219 46.734375 9.792969 46.785156 9.632812 46.777344 C 9.472656 46.765625 9.351562 46.710938 9.265625 46.609375 C 9.179688 46.5 9.140625 46.40625 9.152344 46.316406 C 9.28125 46.304688 9.386719 46.28125 9.464844 46.246094 C 9.542969 46.210938 9.621094 46.167969 9.695312 46.109375 C 9.839844 46 9.921875 45.882812 9.941406 45.761719 C 9.957031 45.640625 9.914062 45.515625 9.816406 45.386719 C 9.722656 45.261719 9.582031 45.183594 9.390625 45.152344 C 9.199219 45.117188 8.957031 45.15625 8.667969 45.269531 C 8.378906 45.378906 8.035156 45.585938 7.636719 45.890625 C 7.363281 46.097656 7.136719 46.269531 6.957031 46.40625 C 6.78125 46.539062 6.636719 46.65625 6.527344 46.746094 C 6.421875 46.839844 6.335938 46.917969 6.269531 46.988281 C 6.203125 47.054688 6.148438 47.125 6.101562 47.195312 C 6.054688 47.1875 5.996094 47.167969 5.929688 47.136719 C 5.859375 47.105469 5.792969 47.046875 5.730469 46.964844 Z M 5.730469 46.964844 "/>
<path style=" stroke:none;fill-rule:nonzero;fill:rgb(100%,100%,100%);fill-opacity:1;" d="M 13.53125 54.339844 C 13.328125 54.191406 13.230469 54.011719 13.230469 53.800781 C 13.226562 53.589844 13.339844 53.332031 13.5625 53.03125 L 14.019531 52.410156 L 14.105469 52.570312 C 13.820312 52.789062 13.519531 52.949219 13.199219 53.046875 C 12.878906 53.144531 12.570312 53.175781 12.265625 53.136719 C 11.964844 53.101562 11.6875 52.988281 11.4375 52.804688 C 11.160156 52.601562 11 52.371094 10.957031 52.109375 C 10.910156 51.851562 10.980469 51.597656 11.160156 51.351562 C 11.300781 51.160156 11.476562 51.027344 11.6875 50.953125 C 11.898438 50.878906 12.128906 50.855469 12.378906 50.882812 C 12.625 50.910156 12.882812 50.972656 13.152344 51.078125 C 13.382812 51.171875 13.609375 51.285156 13.832031 51.417969 C 14.050781 51.554688 14.246094 51.6875 14.410156 51.824219 L 14.542969 51.644531 C 14.84375 51.242188 15 50.886719 15.015625 50.582031 C 15.03125 50.277344 14.878906 50.007812 14.558594 49.769531 C 14.449219 49.6875 14.324219 49.625 14.183594 49.574219 C 14.042969 49.523438 13.910156 49.511719 13.78125 49.535156 C 13.648438 49.5625 13.527344 49.652344 13.417969 49.800781 C 13.351562 49.894531 13.300781 50.003906 13.273438 50.140625 C 13.246094 50.273438 13.273438 50.398438 13.351562 50.515625 C 13.273438 50.535156 13.195312 50.535156 13.121094 50.511719 C 13.042969 50.484375 12.976562 50.453125 12.917969 50.40625 C 12.753906 50.285156 12.671875 50.128906 12.671875 49.9375 C 12.671875 49.742188 12.730469 49.566406 12.84375 49.410156 C 13.046875 49.132812 13.324219 49.015625 13.671875 49.054688 C 14.015625 49.089844 14.390625 49.257812 14.792969 49.554688 C 15.277344 49.914062 15.542969 50.300781 15.585938 50.710938 C 15.628906 51.125 15.460938 51.585938 15.082031 52.097656 L 14.050781 53.488281 C 13.871094 53.734375 13.863281 53.917969 14.027344 54.042969 C 14.066406 54.070312 14.117188 54.089844 14.179688 54.101562 C 14.242188 54.113281 14.304688 54.101562 14.367188 54.066406 C 14.367188 54.125 14.359375 54.179688 14.339844 54.226562 C 14.324219 54.273438 14.304688 54.3125 14.285156 54.339844 C 14.207031 54.441406 14.097656 54.492188 13.953125 54.496094 C 13.8125 54.496094 13.667969 54.445312 13.53125 54.339844 Z M 11.972656 52.597656 C 12.109375 52.699219 12.277344 52.761719 12.480469 52.785156 C 12.679688 52.804688 12.890625 52.796875 13.113281 52.75 C 13.332031 52.703125 13.542969 52.625 13.75 52.507812 C 13.949219 52.394531 14.121094 52.246094 14.257812 52.058594 C 14.160156 51.972656 14.039062 51.882812 13.898438 51.792969 C 13.761719 51.703125 13.621094 51.625 13.476562 51.554688 C 13.335938 51.488281 13.203125 51.433594 13.078125 51.398438 C 12.816406 51.320312 12.582031 51.304688 12.371094 51.347656 C 12.160156 51.390625 11.988281 51.5 11.855469 51.679688 C 11.753906 51.820312 11.699219 51.976562 11.691406 52.148438 C 11.6875 52.320312 11.78125 52.46875 11.972656 52.597656 Z M 11.972656 52.597656 "/>
<path style=" stroke:none;fill-rule:nonzero;fill:rgb(100%,100%,100%);fill-opacity:1;" d="M 25.429688 55.964844 L 24.945312 57.621094 C 24.90625 57.765625 24.867188 57.921875 24.832031 58.089844 C 24.796875 58.253906 24.785156 58.40625 24.792969 58.542969 C 24.738281 58.566406 24.675781 58.585938 24.605469 58.601562 C 24.535156 58.613281 24.457031 58.605469 24.367188 58.578125 C 24.257812 58.546875 24.175781 58.488281 24.121094 58.398438 C 24.070312 58.3125 24.058594 58.214844 24.09375 58.101562 L 24.746094 55.859375 C 24.832031 55.566406 24.886719 55.304688 24.90625 55.074219 C 24.925781 54.84375 24.894531 54.652344 24.8125 54.5 C 24.734375 54.347656 24.589844 54.242188 24.378906 54.179688 C 24.257812 54.144531 24.125 54.144531 23.976562 54.175781 C 23.828125 54.207031 23.679688 54.277344 23.527344 54.390625 C 23.378906 54.503906 23.234375 54.667969 23.09375 54.886719 C 22.949219 55.101562 22.828125 55.378906 22.722656 55.710938 L 22.394531 56.875 C 22.351562 57.019531 22.3125 57.175781 22.277344 57.34375 C 22.246094 57.511719 22.230469 57.660156 22.234375 57.792969 C 22.183594 57.820312 22.121094 57.839844 22.054688 57.855469 C 21.984375 57.867188 21.90625 57.859375 21.816406 57.835938 C 21.710938 57.804688 21.632812 57.746094 21.582031 57.660156 C 21.535156 57.570312 21.523438 57.472656 21.558594 57.363281 L 22.203125 55.117188 C 22.34375 54.644531 22.390625 54.269531 22.347656 53.988281 C 22.304688 53.707031 22.128906 53.523438 21.8125 53.429688 C 21.683594 53.394531 21.546875 53.390625 21.398438 53.425781 C 21.25 53.460938 21.101562 53.542969 20.953125 53.671875 C 20.800781 53.800781 20.65625 53.980469 20.515625 54.214844 C 20.375 54.453125 20.25 54.753906 20.144531 55.125 C 20.050781 55.449219 19.972656 55.714844 19.910156 55.929688 C 19.847656 56.140625 19.800781 56.316406 19.769531 56.445312 C 19.742188 56.582031 19.71875 56.691406 19.707031 56.785156 C 19.695312 56.878906 19.695312 56.96875 19.707031 57.054688 C 19.664062 57.074219 19.609375 57.09375 19.539062 57.109375 C 19.464844 57.128906 19.378906 57.121094 19.28125 57.09375 C 19.167969 57.0625 19.089844 57 19.035156 56.90625 C 18.984375 56.8125 18.976562 56.707031 19.011719 56.582031 L 19.898438 53.519531 C 19.941406 53.378906 19.949219 53.261719 19.917969 53.171875 C 19.890625 53.082031 19.832031 53.023438 19.734375 52.996094 C 19.6875 52.980469 19.632812 52.980469 19.578125 52.996094 C 19.523438 53.015625 19.472656 53.046875 19.429688 53.09375 C 19.390625 53 19.386719 52.90625 19.414062 52.8125 C 19.453125 52.679688 19.53125 52.585938 19.652344 52.539062 C 19.777344 52.488281 19.910156 52.488281 20.054688 52.527344 C 20.277344 52.59375 20.425781 52.722656 20.511719 52.910156 C 20.59375 53.101562 20.589844 53.351562 20.5 53.660156 L 20.335938 54.21875 L 20.296875 54.070312 C 20.496094 53.679688 20.757812 53.394531 21.078125 53.222656 C 21.402344 53.046875 21.742188 53.011719 22.109375 53.121094 C 22.507812 53.238281 22.773438 53.441406 22.902344 53.734375 C 23.035156 54.03125 23.050781 54.40625 22.953125 54.867188 L 22.863281 54.800781 C 22.988281 54.542969 23.144531 54.332031 23.332031 54.167969 C 23.523438 54.003906 23.730469 53.894531 23.960938 53.839844 C 24.191406 53.789062 24.425781 53.796875 24.671875 53.867188 C 25.109375 53.996094 25.386719 54.234375 25.5 54.589844 C 25.617188 54.941406 25.59375 55.398438 25.429688 55.964844 Z M 25.429688 55.964844 "/>
<path style=" stroke:none;fill-rule:nonzero;fill:rgb(100%,100%,100%);fill-opacity:1;" d="M 33.820312 58.714844 C 33.574219 58.734375 33.378906 58.667969 33.242188 58.507812 C 33.101562 58.347656 33.011719 58.082031 32.984375 57.707031 L 32.921875 56.9375 L 33.089844 57.003906 C 33.019531 57.355469 32.898438 57.675781 32.71875 57.957031 C 32.542969 58.242188 32.332031 58.46875 32.078125 58.640625 C 31.824219 58.8125 31.542969 58.910156 31.234375 58.933594 C 30.894531 58.964844 30.621094 58.894531 30.417969 58.730469 C 30.210938 58.5625 30.097656 58.328125 30.070312 58.023438 C 30.050781 57.785156 30.097656 57.570312 30.203125 57.375 C 30.316406 57.183594 30.472656 57.015625 30.679688 56.867188 C 30.882812 56.726562 31.121094 56.605469 31.390625 56.507812 C 31.625 56.421875 31.871094 56.359375 32.125 56.316406 C 32.378906 56.273438 32.613281 56.246094 32.828125 56.242188 L 32.808594 56.015625 C 32.769531 55.515625 32.65625 55.148438 32.46875 54.90625 C 32.28125 54.667969 31.988281 54.5625 31.589844 54.597656 C 31.453125 54.609375 31.316406 54.640625 31.175781 54.695312 C 31.039062 54.75 30.929688 54.828125 30.847656 54.933594 C 30.769531 55.039062 30.734375 55.183594 30.75 55.371094 C 30.757812 55.484375 30.796875 55.601562 30.863281 55.71875 C 30.933594 55.839844 31.035156 55.917969 31.171875 55.953125 C 31.125 56.019531 31.066406 56.066406 30.992188 56.101562 C 30.917969 56.132812 30.84375 56.152344 30.769531 56.15625 C 30.570312 56.171875 30.40625 56.109375 30.277344 55.964844 C 30.148438 55.816406 30.078125 55.648438 30.0625 55.453125 C 30.03125 55.109375 30.164062 54.839844 30.449219 54.640625 C 30.734375 54.441406 31.125 54.320312 31.625 54.28125 C 32.226562 54.230469 32.675781 54.347656 32.980469 54.628906 C 33.285156 54.914062 33.460938 55.371094 33.515625 56.003906 L 33.65625 57.730469 C 33.679688 58.035156 33.796875 58.179688 34 58.164062 C 34.046875 58.160156 34.101562 58.140625 34.15625 58.105469 C 34.210938 58.074219 34.25 58.023438 34.273438 57.957031 C 34.308594 58 34.339844 58.046875 34.355469 58.09375 C 34.375 58.140625 34.386719 58.183594 34.386719 58.21875 C 34.398438 58.34375 34.351562 58.457031 34.242188 58.550781 C 34.136719 58.644531 33.996094 58.699219 33.820312 58.714844 Z M 31.503906 58.425781 C 31.671875 58.414062 31.839844 58.347656 32.007812 58.234375 C 32.171875 58.117188 32.324219 57.972656 32.460938 57.792969 C 32.597656 57.613281 32.703125 57.414062 32.78125 57.191406 C 32.859375 56.972656 32.886719 56.746094 32.867188 56.515625 C 32.734375 56.515625 32.589844 56.527344 32.425781 56.554688 C 32.261719 56.578125 32.101562 56.613281 31.949219 56.652344 C 31.796875 56.695312 31.660156 56.742188 31.546875 56.796875 C 31.300781 56.910156 31.109375 57.050781 30.980469 57.222656 C 30.847656 57.394531 30.792969 57.589844 30.8125 57.8125 C 30.824219 57.988281 30.886719 58.140625 30.996094 58.273438 C 31.105469 58.40625 31.273438 58.457031 31.503906 58.425781 Z M 31.503906 58.425781 "/>
<path style=" stroke:none;fill-rule:nonzero;fill:rgb(100%,100%,100%);fill-opacity:1;" d="M 38.007812 51.644531 L 39.929688 56.566406 C 40.171875 56.472656 40.410156 56.363281 40.652344 56.246094 C 40.890625 56.128906 41.121094 56.007812 41.347656 55.882812 C 41.570312 55.761719 41.769531 55.640625 41.949219 55.527344 C 42 55.535156 42.050781 55.566406 42.097656 55.625 C 42.148438 55.683594 42.1875 55.75 42.214844 55.820312 C 42.242188 55.894531 42.253906 55.960938 42.25 56.023438 C 42.242188 56.082031 42.210938 56.125 42.152344 56.148438 L 39.804688 57.058594 C 39.699219 57.101562 39.597656 57.101562 39.5 57.066406 C 39.40625 57.027344 39.335938 56.953125 39.292969 56.839844 L 37.617188 52.546875 C 37.550781 52.386719 37.484375 52.234375 37.414062 52.09375 C 37.34375 51.949219 37.265625 51.828125 37.175781 51.726562 C 37.195312 51.679688 37.230469 51.628906 37.28125 51.570312 C 37.332031 51.515625 37.40625 51.46875 37.5 51.433594 C 37.605469 51.390625 37.707031 51.386719 37.800781 51.421875 C 37.894531 51.457031 37.964844 51.53125 38.007812 51.644531 Z M 38.007812 51.644531 "/>
<path style=" stroke:none;fill-rule:nonzero;fill:rgb(100%,100%,100%);fill-opacity:1;" d="M 43.992188 48.9375 C 43.886719 49.011719 43.769531 49.039062 43.644531 49.015625 C 43.515625 48.996094 43.414062 48.933594 43.339844 48.828125 C 43.265625 48.71875 43.238281 48.601562 43.261719 48.476562 C 43.285156 48.347656 43.347656 48.25 43.453125 48.175781 C 43.558594 48.097656 43.675781 48.070312 43.800781 48.09375 C 43.925781 48.117188 44.027344 48.179688 44.105469 48.289062 C 44.175781 48.390625 44.203125 48.507812 44.183594 48.636719 C 44.164062 48.761719 44.097656 48.863281 43.992188 48.9375 Z M 44.925781 49.617188 L 46.746094 52.179688 C 46.84375 52.316406 46.945312 52.445312 47.050781 52.570312 C 47.15625 52.691406 47.261719 52.792969 47.375 52.871094 C 47.363281 52.914062 47.339844 52.972656 47.308594 53.039062 C 47.273438 53.109375 47.21875 53.171875 47.136719 53.226562 C 47.046875 53.292969 46.953125 53.316406 46.851562 53.304688 C 46.75 53.289062 46.667969 53.238281 46.597656 53.140625 L 44.777344 50.578125 C 44.683594 50.441406 44.582031 50.3125 44.476562 50.1875 C 44.371094 50.066406 44.261719 49.964844 44.152344 49.886719 C 44.164062 49.84375 44.183594 49.789062 44.21875 49.71875 C 44.25 49.648438 44.308594 49.585938 44.386719 49.53125 C 44.480469 49.464844 44.578125 49.4375 44.671875 49.449219 C 44.773438 49.460938 44.855469 49.519531 44.925781 49.617188 Z M 44.925781 49.617188 "/>
<path style=" stroke:none;fill-rule:nonzero;fill:rgb(100%,100%,100%);fill-opacity:1;" d="M 51.859375 48.730469 C 51.78125 48.828125 51.691406 48.878906 51.585938 48.890625 C 51.480469 48.902344 51.378906 48.867188 51.28125 48.785156 L 48.792969 46.777344 C 48.660156 46.675781 48.558594 46.621094 48.484375 46.605469 C 48.410156 46.589844 48.34375 46.617188 48.289062 46.683594 C 48.273438 46.707031 48.257812 46.742188 48.242188 46.789062 C 48.226562 46.832031 48.230469 46.886719 48.257812 46.945312 C 48.148438 46.945312 48.054688 46.914062 47.976562 46.851562 C 47.886719 46.78125 47.84375 46.683594 47.839844 46.566406 C 47.839844 46.445312 47.890625 46.324219 47.992188 46.199219 C 48.132812 46.027344 48.292969 45.941406 48.480469 45.945312 C 48.667969 45.949219 48.878906 46.046875 49.113281 46.234375 L 49.582031 46.617188 L 49.625 46.8125 C 49.375 46.570312 49.199219 46.3125 49.097656 46.046875 C 48.992188 45.78125 48.960938 45.515625 49.003906 45.25 C 49.046875 44.984375 49.164062 44.738281 49.347656 44.507812 C 49.648438 44.136719 49.988281 43.957031 50.371094 43.972656 C 50.75 43.992188 51.167969 44.1875 51.625 44.554688 L 52.964844 45.640625 C 53.085938 45.730469 53.21875 45.824219 53.359375 45.917969 C 53.5 46.011719 53.632812 46.085938 53.757812 46.132812 C 53.761719 46.195312 53.753906 46.261719 53.738281 46.332031 C 53.722656 46.398438 53.6875 46.472656 53.628906 46.542969 C 53.554688 46.632812 53.46875 46.6875 53.367188 46.703125 C 53.261719 46.71875 53.167969 46.691406 53.078125 46.617188 L 51.257812 45.148438 C 50.878906 44.847656 50.546875 44.671875 50.269531 44.613281 C 49.992188 44.558594 49.75 44.660156 49.539062 44.917969 C 49.449219 45.03125 49.386719 45.164062 49.351562 45.316406 C 49.316406 45.472656 49.324219 45.644531 49.371094 45.839844 C 49.417969 46.035156 49.519531 46.242188 49.671875 46.464844 C 49.828125 46.683594 50.050781 46.910156 50.335938 47.144531 C 50.605469 47.363281 50.828125 47.539062 51.007812 47.679688 C 51.183594 47.820312 51.328125 47.929688 51.445312 48.015625 C 51.5625 48.105469 51.660156 48.167969 51.742188 48.214844 C 51.828125 48.257812 51.90625 48.296875 51.988281 48.324219 C 51.988281 48.367188 51.984375 48.429688 51.972656 48.503906 C 51.957031 48.578125 51.921875 48.65625 51.859375 48.730469 Z M 51.859375 48.730469 "/>
<path style=" stroke:none;fill-rule:nonzero;fill:rgb(100%,100%,100%);fill-opacity:1;" d="M 56.691406 40.941406 C 56.636719 41.082031 56.566406 41.160156 56.472656 41.179688 C 56.382812 41.199219 56.28125 41.1875 56.167969 41.144531 L 50.925781 39.113281 C 50.8125 39.070312 50.738281 39 50.703125 38.90625 C 50.671875 38.8125 50.675781 38.710938 50.71875 38.601562 C 50.753906 38.507812 50.800781 38.433594 50.859375 38.386719 C 50.921875 38.335938 50.96875 38.304688 51.007812 38.289062 C 51.113281 38.359375 51.21875 38.421875 51.320312 38.476562 C 51.417969 38.527344 51.515625 38.574219 51.613281 38.617188 C 51.707031 38.660156 51.804688 38.703125 51.90625 38.746094 C 52.007812 38.789062 52.117188 38.835938 52.230469 38.886719 L 53.941406 39.5625 L 53.855469 39.585938 C 53.613281 39.402344 53.417969 39.195312 53.269531 38.964844 C 53.125 38.734375 53.035156 38.488281 53.007812 38.222656 C 52.976562 37.957031 53.015625 37.683594 53.125 37.402344 C 53.253906 37.074219 53.433594 36.859375 53.671875 36.757812 C 53.90625 36.652344 54.160156 36.65625 54.433594 36.761719 C 54.65625 36.847656 54.832031 36.976562 54.964844 37.152344 C 55.097656 37.328125 55.195312 37.527344 55.261719 37.746094 C 55.324219 37.964844 55.363281 38.191406 55.378906 38.421875 C 55.429688 38.371094 55.488281 38.335938 55.558594 38.308594 C 55.632812 38.285156 55.714844 38.265625 55.808594 38.246094 L 56.851562 38.101562 C 56.964844 38.078125 57.050781 38.054688 57.117188 38.03125 C 57.175781 38.011719 57.222656 37.960938 57.25 37.886719 C 57.261719 37.859375 57.269531 37.820312 57.273438 37.773438 C 57.273438 37.722656 57.261719 37.671875 57.234375 37.617188 C 57.285156 37.601562 57.332031 37.59375 57.375 37.59375 C 57.417969 37.59375 57.460938 37.605469 57.503906 37.621094 C 57.625 37.667969 57.707031 37.765625 57.742188 37.90625 C 57.773438 38.046875 57.765625 38.1875 57.710938 38.328125 C 57.660156 38.460938 57.570312 38.566406 57.449219 38.644531 C 57.324219 38.726562 57.175781 38.765625 57 38.773438 L 55.355469 38.933594 C 55.351562 39.136719 55.339844 39.335938 55.324219 39.53125 C 55.304688 39.730469 55.285156 39.910156 55.265625 40.070312 C 55.503906 40.160156 55.699219 40.234375 55.851562 40.292969 C 56.007812 40.351562 56.132812 40.394531 56.226562 40.421875 C 56.320312 40.449219 56.402344 40.46875 56.472656 40.476562 C 56.542969 40.488281 56.621094 40.496094 56.699219 40.496094 C 56.71875 40.546875 56.730469 40.605469 56.738281 40.679688 C 56.746094 40.75 56.734375 40.839844 56.691406 40.941406 Z M 54.976562 39.957031 C 54.996094 39.691406 55.007812 39.429688 55.011719 39.164062 C 55.011719 38.902344 54.988281 38.652344 54.9375 38.417969 C 54.890625 38.179688 54.8125 37.976562 54.699219 37.808594 C 54.582031 37.636719 54.425781 37.511719 54.222656 37.433594 C 54.011719 37.351562 53.839844 37.34375 53.710938 37.414062 C 53.582031 37.484375 53.484375 37.601562 53.417969 37.769531 C 53.3125 38.042969 53.308594 38.320312 53.410156 38.59375 C 53.511719 38.867188 53.695312 39.125 53.96875 39.363281 C 54.234375 39.601562 54.570312 39.800781 54.976562 39.957031 Z M 54.976562 39.957031 "/>
<path style=" stroke:none;fill-rule:nonzero;fill:rgb(100%,100%,100%);fill-opacity:1;" d="M 0 29.34375 C 0 28.039062 1.054688 26.984375 2.359375 26.984375 C 3.660156 26.984375 4.71875 28.039062 4.71875 29.34375 C 4.71875 30.644531 3.660156 31.703125 2.359375 31.703125 C 1.054688 31.703125 0 30.644531 0 29.34375 Z M 0 29.34375 "/>
<path style=" stroke:none;fill-rule:nonzero;fill:rgb(100%,100%,100%);fill-opacity:1;" d="M 54.28125 29.34375 C 54.28125 28.039062 55.339844 26.984375 56.640625 26.984375 C 57.945312 26.984375 59 28.039062 59 29.34375 C 59 30.644531 57.945312 31.703125 56.640625 31.703125 C 55.339844 31.703125 54.28125 30.644531 54.28125 29.34375 Z M 54.28125 29.34375 "/>
</g>
</svg>
